# ProBuilder 4.2.3
# https://unity3d.com/unity/features/worldbuilding/probuilder
# 30/01/2021 11:41:37

mtllib ./charactersize.mtl
o charactersize

g New Game Object
v -0.5 0.9999999 0.5000004
v -0.5 -1.000001 0.5000001
v 0.5 -1 0.4999999
v 0.5 1 0.5000001
v -0.5 1 -0.5
v 0.5 1 -0.5
v 0.5 -1 -0.5000002
v -0.5 -1.000001 -0.5000002

vt -0.4999998 5.960463E-08
vt -0.4999998 2
vt -1.5 2
vt -1.5 0
vt 0.5 5.960463E-08
vt 1.5 0
vt 1.5 2
vt 0.5 2
vt -0.5 -1.421085E-14
vt -1.5 0
vt -0.5 1
vt -1.5 1
vt 0 0
vt -2 0
vt 0 1
vt -2 1
vt 2 -1.421085E-14
vt 2 1
vt 1.499999 0
vt 0.499999 -1.421085E-14
vt 1.499999 1
vt 0.499999 1

vn 2.384186E-07 -1.192093E-07 1
vn 1.421085E-14 1.192093E-07 -1
vn -5.960463E-08 1 1.192093E-07
vn 1 0 0
vn -1 0 0
vn 4.768372E-07 -1 -1.192093E-07

usemtl Lit
f 2/2/1 3/3/1 4/4/1 1/1/1
f 6/6/2 7/7/2 8/8/2 5/5/2
f 1/11/3 4/12/3 6/10/3 5/9/3
f 4/15/4 3/16/4 7/14/4 6/13/4
f 2/18/5 1/15/5 5/13/5 8/17/5
f 3/21/6 2/22/6 8/20/6 7/19/6

